<svg width="169" height="52" viewBox="0 0 169 52" fill="none" xmlns="http://www.w3.org/2000/svg">
<path d="M38.0048 47.094L32.1601 50.6362L31.4545 51.0639C31.4139 51.0883 31.3728 51.1121 31.3322 51.1347C31.3125 51.1453 31.2928 51.1566 31.2732 51.1672C31.229 51.1917 31.1825 51.2142 31.1378 51.2367C31.1109 51.2499 31.0841 51.263 31.0566 51.2749C31.034 51.2856 31.0107 51.2962 30.9881 51.3063C30.9564 51.32 30.9254 51.3332 30.8932 51.3463C30.8658 51.3576 30.8383 51.3689 30.8103 51.3795C29.6758 51.816 28.4018 51.7101 27.3336 51.0639L10.013 40.5668C8.73782 39.7935 7.95288 38.3658 7.95288 36.8198L7.95288 15.8244C7.95288 14.279 8.73782 12.8507 10.013 12.0774L26.0893 2.33358L27.3336 1.57905C28.6088 0.806987 30.1793 0.806987 31.4545 1.57905L48.775 12.0768C50.0497 12.8501 50.8352 14.2784 50.8352 15.8238L50.8352 36.8192C50.8352 38.3652 50.0503 39.7929 48.775 40.5662L47.4091 41.394L46.6194 41.8724L39.8944 45.9481" fill="url(#paint0_linear_157_13)"/>
<path d="M39.0542 37.427C39.0542 36.7387 38.6295 36.1147 37.9684 35.8336L30.2812 32.5652C32.0706 33.2655 33.8276 33.5506 35.2954 33.2575C37.0165 32.9142 38.3408 31.7757 38.8541 29.5811C38.9052 29.3639 38.9482 29.135 38.9833 28.8948C38.9845 28.8848 38.9862 28.8747 38.9875 28.8647C38.9875 28.8772 38.9879 28.8892 38.9879 28.902C39.0968 28.135 39.1226 27.2504 39.0542 26.2352C39.0542 25.5441 38.9761 24.8646 38.8267 24.2065C38.1567 21.2585 36.0511 18.7347 33.0804 17.4713L25.0913 14.0748C25.0618 14.0624 25.0322 14.0491 25.0022 14.0367C20.015 11.9561 19.5582 9.97875 19.5582 9.97875L19.5582 15.7036C19.5582 17.0681 20.4017 18.3054 21.7112 18.8624L31.2614 22.9222C31.8152 23.2186 32.5519 23.7623 32.9242 24.6699C32.9593 24.7631 32.993 24.8574 33.0247 24.9526C33.1336 25.2839 33.2189 25.626 33.2792 25.9722C33.8453 29.2305 32.1656 32.8411 26.5321 30.9722L24.8549 30.2594C24.8211 30.2453 24.7878 30.2312 24.7549 30.2163C19.5582 27.9257 19.5582 26.2521 19.5582 26.2521L19.5582 31.9315C19.5582 33.331 20.4232 34.5995 21.7661 35.1706L39.0542 42.5197L39.0542 37.427Z" fill="white"/>
<path d="M66.676 20.628L66.962 18.538H63.398L63.684 16.448H67.248L67.38 15.612L66.654 14.776H71.67L69.558 29.824H65.378L65.774 26.898H61.814L62.1 24.808H66.082L66.368 22.718H62.804L63.112 20.628H66.676ZM77.082 14.776L76.84 16.448H80.404L80.118 18.538H76.554L76.268 20.628H79.832L79.524 22.718H75.96L75.674 24.808H79.656L79.37 26.898H75.366L74.97 29.824H70.812L72.924 14.776H77.082ZM97.3863 17.966H93.4263L92.9863 21.09H89.6423L90.0823 17.966H86.0783L85.6823 20.672H82.5803L83.1523 16.602H90.2583L90.3243 16.118H83.6583L83.8343 14.754H100.554L100.378 16.118H93.6683L93.6023 16.602H100.708L100.136 20.672H96.9903L97.3863 17.966ZM89.0483 24.852L88.6743 23.62H92.5683L92.9423 24.852H98.5743L98.3323 26.524L92.7443 29.12L94.7683 30.154H89.6863L84.0983 26.964H88.5203L90.4783 27.976L93.7123 26.524H82.2943L82.5363 24.852H89.0483ZM95.1643 24.39L92.7663 22.916H89.0263L86.3643 24.39H82.0083L86.9803 21.486H95.3183L99.6303 24.39H95.1643ZM89.5983 18.34L89.4443 19.484H86.2983L86.4523 18.34H89.5983ZM89.4003 19.88L89.2243 21.024H86.0783L86.2543 19.88H89.4003ZM96.9023 18.34L96.7483 19.484H93.6243L93.7783 18.34H96.9023ZM96.7043 19.88L96.5283 21.024H93.4043L93.5803 19.88H96.7043ZM104.557 16.448L105.745 14.886L105.283 14.358H111.135L109.551 16.448H121.299L119.429 29.824H101.873L103.743 16.448H104.557ZM115.755 26.062H106.559L106.339 27.734H115.535L115.755 26.062ZM106.867 23.972H116.063L116.305 22.3H107.109L106.867 23.972ZM107.395 20.21H116.591L116.833 18.538H107.637L107.395 20.21ZM131.637 15.612L131.703 15.15L131.219 14.402H135.289L135.113 15.612H137.687L137.753 15.15L137.247 14.402H141.339L141.163 15.612H142.043L141.801 17.284H140.943L140.239 22.3H137.115L137.027 22.96H141.009L140.701 25.072H136.741L136.015 30.176H132.649L133.375 25.072H129.437L129.745 22.96H133.661L133.749 22.3H130.713L131.395 17.284H130.559L130.801 15.612H131.637ZM124.091 16.932L124.465 14.358H126.841L126.467 16.932H127.215L127.567 14.38H129.965L129.613 16.932H130.163L129.877 19.022H129.305L128.601 24.17L126.819 26.678L128.271 30.176H125.719L125.169 28.966L124.311 30.176H121.627L124.113 26.656L123.057 24.324L123.805 19.022H123.211L123.497 16.932H124.091ZM137.137 30.176L136.873 25.6H139.601L139.953 30.176H137.137ZM128.887 30.154L130.317 25.644H132.979L131.615 30.154H128.887ZM126.291 23.598L126.929 19.022H126.181L125.543 23.598L125.807 24.28L126.291 23.598ZM137.005 20.606L137.115 19.704H134.541L134.431 20.606H137.005ZM134.761 18.186H137.335L137.445 17.284H134.871L134.761 18.186ZM152.689 18.758L151.215 25.028H152.205L153.173 18.12H149.213L149.499 16.03H153.459L153.591 15.194L152.887 14.358H157.705L157.463 16.03H161.423L161.137 18.12H157.177L156.187 25.028H157.199L157.485 18.758H160.213L159.685 29.824H156.979L157.089 27.118H155.901L155.461 30.198H151.479L151.897 27.118H150.731L150.093 29.824H147.365L149.961 18.758H152.689ZM148.619 16.448L148.553 16.91L146.683 30.198H142.701L144.461 17.724L143.185 17.966L143.537 15.458L148.905 14.402L148.619 16.448Z" fill="#333333"/>
<path d="M69.432 34.488V35.352L66.376 39.136H69.432V40H64.144V39.136H64.84L67.896 35.352H64.144V34.488H69.432ZM76.5701 37.68V36.824H80.6101V37.68H76.5701ZM92.7793 37.184C92.9606 37.328 93.1019 37.5067 93.2033 37.72C93.3099 37.9333 93.3633 38.1627 93.3633 38.408C93.3633 38.696 93.2913 38.9627 93.1473 39.208C93.0033 39.448 92.8086 39.64 92.5633 39.784C92.3232 39.928 92.0593 40 91.7713 40H87.9392V34.496H91.6273C91.9153 34.496 92.1793 34.568 92.4193 34.712C92.6646 34.856 92.8593 35.0507 93.0033 35.296C93.1473 35.536 93.2193 35.8 93.2193 36.088C93.2193 36.296 93.1793 36.4933 93.0993 36.68C93.0246 36.8667 92.9179 37.0347 92.7793 37.184ZM89.2192 36.824H91.2033C91.4059 36.824 91.5766 36.752 91.7153 36.608C91.8593 36.464 91.9313 36.2907 91.9313 36.088C91.9313 35.8853 91.8593 35.712 91.7153 35.568C91.5766 35.424 91.4059 35.352 91.2033 35.352H89.2192V36.824ZM92.0753 38.408C92.0753 38.2053 92.0033 38.0347 91.8593 37.896C91.7206 37.752 91.5499 37.68 91.3472 37.68H89.2192V39.136H91.3472C91.5499 39.136 91.7206 39.0667 91.8593 38.928C92.0033 38.784 92.0753 38.6107 92.0753 38.408ZM101.441 40H100.153V34.504H101.441V40ZM111.318 35.752C111.548 35.752 111.758 35.808 111.95 35.92C112.142 36.032 112.294 36.184 112.406 36.376C112.518 36.568 112.574 36.776 112.574 37V38.752C112.574 38.976 112.518 39.184 112.406 39.376C112.294 39.568 112.142 39.72 111.95 39.832C111.758 39.944 111.548 40 111.318 40H109.462C109.233 40 109.022 39.944 108.83 39.832C108.644 39.72 108.494 39.568 108.382 39.376C108.27 39.184 108.214 38.976 108.214 38.752V37C108.214 36.776 108.27 36.568 108.382 36.376C108.494 36.184 108.644 36.032 108.83 35.92C109.022 35.808 109.233 35.752 109.462 35.752H111.318ZM111.286 37.256C111.286 37.0747 111.222 36.9227 111.094 36.8C110.972 36.672 110.82 36.608 110.638 36.608H110.142C109.961 36.608 109.806 36.672 109.678 36.8C109.556 36.9227 109.494 37.0747 109.494 37.256V38.496C109.494 38.6773 109.556 38.832 109.678 38.96C109.806 39.0827 109.961 39.144 110.142 39.144H110.638C110.82 39.144 110.972 39.0827 111.094 38.96C111.222 38.832 111.286 38.6773 111.286 38.496V37.256ZM124.055 35.752V39.912C124.055 40.1573 123.993 40.3813 123.871 40.584C123.753 40.792 123.591 40.9573 123.383 41.08C123.18 41.2027 122.956 41.264 122.711 41.264H119.423V40.4H122.279C122.417 40.4 122.535 40.352 122.631 40.256C122.727 40.16 122.775 40.0453 122.775 39.912V39.248C122.225 39.4507 121.721 39.552 121.263 39.552H120.279C120.092 39.552 119.919 39.5067 119.759 39.416C119.599 39.32 119.471 39.192 119.375 39.032C119.284 38.8667 119.239 38.6907 119.239 38.504V36.792C119.239 36.6053 119.284 36.432 119.375 36.272C119.471 36.112 119.599 35.9867 119.759 35.896C119.919 35.8 120.092 35.752 120.279 35.752H121.255C121.708 35.752 122.215 35.8507 122.775 36.048V35.752H124.055ZM121.575 38.688C121.724 38.688 122.124 38.5707 122.775 38.336V36.968C122.108 36.728 121.708 36.608 121.575 36.608H121.167C120.991 36.608 120.839 36.672 120.711 36.8C120.583 36.9227 120.519 37.0747 120.519 37.256V38.04C120.519 38.2213 120.583 38.376 120.711 38.504C120.839 38.6267 120.991 38.688 121.167 38.688H121.575ZM134.364 34.496C134.689 34.496 134.988 34.576 135.26 34.736C135.537 34.896 135.756 35.112 135.916 35.384C136.076 35.656 136.156 35.9547 136.156 36.28C136.156 36.6053 136.076 36.9067 135.916 37.184C135.756 37.456 135.537 37.672 135.26 37.832C134.988 37.992 134.689 38.072 134.364 38.072H132.012V40H130.732V34.496H134.364ZM133.94 37.216C134.196 37.216 134.415 37.1253 134.596 36.944C134.777 36.7627 134.868 36.5413 134.868 36.28C134.868 36.024 134.777 35.8053 134.596 35.624C134.415 35.4427 134.196 35.352 133.94 35.352H132.012V37.216H133.94ZM146.78 34.496H148.068V40H146.78V37.672H144.068V40H142.788V34.496H144.068V36.816H146.78V34.496ZM158.397 34.496C158.723 34.496 159.021 34.576 159.293 34.736C159.571 34.896 159.789 35.112 159.949 35.384C160.109 35.656 160.189 35.9547 160.189 36.28C160.189 36.6053 160.109 36.9067 159.949 37.184C159.789 37.456 159.571 37.672 159.293 37.832C159.021 37.992 158.723 38.072 158.397 38.072H156.045V40H154.765V34.496H158.397ZM157.973 37.216C158.229 37.216 158.448 37.1253 158.629 36.944C158.811 36.7627 158.901 36.5413 158.901 36.28C158.901 36.024 158.811 35.8053 158.629 35.624C158.448 35.4427 158.229 35.352 157.973 35.352H156.045V37.216H157.973Z" fill="#8B8B8B"/>
<defs>
<linearGradient id="paint0_linear_157_13" x1="44.3546" y1="5.55788" x2="15.823" y2="45.15" gradientUnits="userSpaceOnUse">
<stop stop-color="#ED2C2C"/>
<stop offset="1" stop-color="#F27A7A" stop-opacity="0.87"/>
</linearGradient>
</defs>
</svg>
